<?xml version="1.0" encoding="UTF-8" standalone="no"?>
<!-- Created with Inkscape (http://www.inkscape.org/) -->

<svg
   width="64"
   height="23.110001"
   viewBox="0 0 16.933333 6.114521"
   version="1.1"
   id="svg5"
   inkscape:version="1.2.2 (732a01da63, 2022-12-09)"
   sodipodi:docname="logo.svg"
   inkscape:export-filename="rysunek.png"
   inkscape:export-xdpi="100"
   inkscape:export-ydpi="100"
   xmlns:inkscape="http://www.inkscape.org/namespaces/inkscape"
   xmlns:sodipodi="http://sodipodi.sourceforge.net/DTD/sodipodi-0.dtd"
   xmlns="http://www.w3.org/2000/svg"
   xmlns:svg="http://www.w3.org/2000/svg">
  <sodipodi:namedview
     id="namedview7"
     pagecolor="#505050"
     bordercolor="#ffffff"
     borderopacity="1"
     inkscape:showpageshadow="0"
     inkscape:pageopacity="0"
     inkscape:pagecheckerboard="1"
     inkscape:deskcolor="#505050"
     inkscape:document-units="mm"
     showgrid="false"
     inkscape:zoom="8"
     inkscape:cx="26.75"
     inkscape:cy="37"
     inkscape:window-width="1920"
     inkscape:window-height="1017"
     inkscape:window-x="-8"
     inkscape:window-y="-8"
     inkscape:window-maximized="1"
     inkscape:current-layer="g171" />
  <defs
     id="defs2">
    <inkscape:perspective
       sodipodi:type="inkscape:persp3d"
       inkscape:vp_x="0 : -142.38548 : 1"
       inkscape:vp_y="0 : 999.99998 : 0"
       inkscape:vp_z="210 : -142.38548 : 1"
       inkscape:persp3d-origin="105 : -191.88548 : 1"
       id="perspective839" />
  </defs>
  <g
     inkscape:label="Warstwa 1"
     inkscape:groupmode="layer"
     id="layer1">
    <g
       id="g171"
       transform="matrix(1.0265661,0,0,1.0265661,-68.849335,-49.894018)">
      <g
         aria-label="alljob"
         id="text113"
         style="font-size:6.35px;stroke-width:0.264583;fill:#eaeaea;fill-opacity:1">
        <path
           d="m 69.641101,52.825828 q -0.306958,0.238745 -0.595312,0.359668 -0.285254,0.117822 -0.641822,0.117822 -0.325561,0 -0.573608,-0.127124 -0.244946,-0.130225 -0.378272,-0.350366 -0.133325,-0.220142 -0.133325,-0.47749 0,-0.347266 0.220142,-0.592212 0.220141,-0.244947 0.604614,-0.328662 0.08061,-0.0186 0.399976,-0.08372 0.31936,-0.06511 0.545703,-0.117823 0.229443,-0.05581 0.496093,-0.133325 -0.0155,-0.334863 -0.136425,-0.489892 -0.117823,-0.15813 -0.492993,-0.15813 -0.322461,0 -0.486792,0.08992 -0.161231,0.08992 -0.279053,0.269751 -0.114722,0.179834 -0.164331,0.238745 -0.04651,0.05581 -0.204639,0.05581 -0.142627,0 -0.248047,-0.08992 -0.102319,-0.09302 -0.102319,-0.235644 0,-0.223242 0.15813,-0.434082 0.15813,-0.21084 0.492993,-0.347266 0.334863,-0.136425 0.834058,-0.136425 0.558105,0 0.877465,0.133325 0.319361,0.130224 0.449585,0.415478 0.133326,0.285254 0.133326,0.756543 0,0.297656 -0.0031,0.505396 0,0.207739 -0.0031,0.461987 0,0.238745 0.07752,0.499194 0.08061,0.257349 0.08061,0.331763 0,0.130225 -0.124023,0.238745 -0.120923,0.10542 -0.275952,0.10542 -0.130225,0 -0.257349,-0.120923 -0.127124,-0.124023 -0.269751,-0.356567 z m -0.05581,-1.224732 q -0.186035,0.06821 -0.542602,0.145728 -0.353467,0.07441 -0.489893,0.111621 -0.136425,0.03411 -0.260449,0.139526 -0.124023,0.10232 -0.124023,0.288355 0,0.192236 0.145727,0.328662 0.145728,0.133325 0.381372,0.133325 0.251148,0 0.461988,-0.10852 0.21394,-0.111621 0.313159,-0.285254 0.114721,-0.192237 0.114721,-0.63252 z"
           style="font-family:'Arial Rounded MT Bold';-inkscape-font-specification:'Arial Rounded MT Bold, ';fill:#eaeaea;fill-opacity:1"
           id="path1108" />
        <path
           d="m 71.27511,52.788621 v -3.671094 q 0,-0.254248 0.111621,-0.384473 0.114721,-0.130224 0.306958,-0.130224 0.192236,0 0.310058,0.130224 0.117823,0.127124 0.117823,0.384473 v 3.671094 q 0,0.257348 -0.120923,0.387573 -0.117822,0.127124 -0.306958,0.127124 -0.186035,0 -0.303858,-0.133325 -0.114721,-0.133325 -0.114721,-0.381372 z"
           style="font-family:'Arial Rounded MT Bold';-inkscape-font-specification:'Arial Rounded MT Bold, ';fill:#eaeaea;fill-opacity:1"
           id="path1110" />
        <path
           d="m 72.995935,52.788621 v -3.671094 q 0,-0.254248 0.111621,-0.384473 0.114721,-0.130224 0.306958,-0.130224 0.192236,0 0.310058,0.130224 0.117823,0.127124 0.117823,0.384473 v 3.671094 q 0,0.257348 -0.120923,0.387573 -0.117822,0.127124 -0.306958,0.127124 -0.186035,0 -0.303858,-0.133325 -0.114721,-0.133325 -0.114721,-0.381372 z"
           style="font-family:'Arial Rounded MT Bold';-inkscape-font-specification:'Arial Rounded MT Bold, ';fill:#eaeaea;fill-opacity:1"
           id="path1112" />
        <path
           d="m 75.569421,50.367063 v 2.871143 c 0,0.204639 -0.0072,0.371037 -0.0217,0.499194 -0.0124,0.130225 -0.031,0.224276 -0.05581,0.282153 -0.14056,0.359668 -0.43925,0.539502 -0.896069,0.539502 -0.256315,0 -7.244294,-0.122905 -7.394107,-0.175578 -0.121878,-0.04285 -0.134126,-0.108288 -0.134126,-0.242647 0,-0.09922 0.07126,-0.240885 0.167386,-0.252254 0.185007,-0.07648 6.807914,-0.07986 6.905064,-0.07986 0.12886,0.0058 0.224115,-0.0115 0.31481,-0.03876 0.327549,-0.07923 0.262316,-0.281382 0.268107,-0.550359 v -2.852539 c 0,-0.167431 0.03927,-0.293522 0.117822,-0.378271 0.07855,-0.08475 0.181902,-0.127124 0.310059,-0.127124 0.124023,0 0.224276,0.04237 0.300757,0.127124 0.07855,0.08268 0.117822,0.208772 0.117822,0.378271 z m -0.418579,-0.89917 c -0.117823,0 -0.219109,-0.03617 -0.303858,-0.10852 -0.08268,-0.07235 -0.124023,-0.174667 -0.124023,-0.306958 0,-0.119889 0.04238,-0.218075 0.127124,-0.294556 0.08682,-0.07855 0.187069,-0.117822 0.300757,-0.117822 0.109554,0 0.206706,0.03514 0.291455,0.10542 0.08475,0.07028 0.127124,0.172599 0.127124,0.306958 0,0.130225 -0.04134,0.232544 -0.124023,0.306958 -0.08268,0.07235 -0.180868,0.10852 -0.294556,0.10852 z"
           style="font-family:'Arial Rounded MT Bold';-inkscape-font-specification:'Arial Rounded MT Bold, ';fill:#eaeaea;fill-opacity:1"
           id="path1114"
           sodipodi:nodetypes="csccsssccccssscscscscssscs" />
        <path
           d="m 79.606384,51.582493 q 0,0.378271 -0.117822,0.697632 -0.117823,0.31936 -0.341065,0.548803 -0.223242,0.229444 -0.533301,0.353467 -0.310058,0.120923 -0.697631,0.120923 -0.384473,0 -0.691431,-0.124023 -0.306958,-0.124024 -0.533301,-0.353467 -0.223242,-0.232544 -0.341064,-0.545703 -0.114722,-0.31626 -0.114722,-0.697632 0,-0.384473 0.117822,-0.703833 0.117823,-0.31936 0.337964,-0.545703 0.220142,-0.226343 0.533301,-0.347266 0.313159,-0.124023 0.691431,-0.124023 0.384472,0 0.697631,0.124023 0.31316,0.124024 0.536402,0.353467 0.223242,0.229443 0.337964,0.545703 0.117822,0.31626 0.117822,0.697632 z m -0.849561,0 q 0,-0.517798 -0.229443,-0.806152 -0.226343,-0.288355 -0.610815,-0.288355 -0.248047,0 -0.437183,0.130225 -0.189136,0.127124 -0.291455,0.378271 -0.102319,0.251148 -0.102319,0.586011 0,0.331763 0.09922,0.579809 0.10232,0.248047 0.288355,0.381372 0.189135,0.130225 0.443384,0.130225 0.384472,0 0.610815,-0.288354 0.229443,-0.291455 0.229443,-0.803052 z"
           style="font-family:'Arial Rounded MT Bold';-inkscape-font-specification:'Arial Rounded MT Bold, ';fill:#eaeaea;fill-opacity:1"
           id="path1116" />
        <path
           d="m 81.054357,49.086521 v 1.292945 q 0.238745,-0.248047 0.486792,-0.378272 0.248047,-0.133325 0.613916,-0.133325 0.42168,0 0.73794,0.201538 0.31936,0.198437 0.492993,0.579809 0.176733,0.378272 0.176733,0.89917 0,0.384473 -0.09922,0.706934 -0.09612,0.31936 -0.282153,0.555005 -0.186035,0.235644 -0.452685,0.365869 -0.26355,0.127124 -0.582911,0.127124 -0.195337,0 -0.368969,-0.04651 -0.170533,-0.04651 -0.291455,-0.120923 -0.120923,-0.07751 -0.20774,-0.158129 -0.08372,-0.08062 -0.223242,-0.241846 v 0.08372 q 0,0.238745 -0.114722,0.362768 -0.114721,0.120923 -0.291455,0.120923 -0.179834,0 -0.288354,-0.120923 -0.10542,-0.124023 -0.10542,-0.362768 v -3.695899 q 0,-0.257348 0.102319,-0.387573 0.10542,-0.133325 0.291455,-0.133325 0.195337,0 0.300757,0.127124 0.10542,0.124023 0.10542,0.356567 z m 0.04031,2.514575 q 0,0.505396 0.229443,0.778247 0.232544,0.269751 0.607715,0.269751 0.31936,0 0.548804,-0.275952 0.232544,-0.279052 0.232544,-0.79685 0,-0.334864 -0.09612,-0.576709 -0.09612,-0.241846 -0.272851,-0.372071 -0.176734,-0.133325 -0.412378,-0.133325 -0.241846,0 -0.430982,0.133325 -0.189135,0.130225 -0.297656,0.381372 -0.10852,0.248047 -0.108519,0.592212 z"
           style="font-family:'Arial Rounded MT Bold';-inkscape-font-specification:'Arial Rounded MT Bold, ';fill:#eaeaea;fill-opacity:1"
           id="path1118" />
      </g>
    </g>
  </g>
</svg>
